<svg xmlns="http://www.w3.org/2000/svg" xmlns:xlink="http://www.w3.org/1999/xlink" fill="none" version="1.1" width="24" height="24" viewBox="0 0 24 24"><defs><clipPath id="master_svg0_0_520"><rect x="0" y="0" width="24" height="24" rx="0"/></clipPath></defs><g clip-path="url(#master_svg0_0_520)"><g><path d="M9.999998208847046,5C9.999998208847046,5,10.427468208847046,5.9040300000000006,10.427468208847046,5.9040300000000006C10.777048208847045,5.73873,10.999998208847046,5.38669,10.999998208847046,5C10.999998208847046,5,9.999998208847046,5,9.999998208847046,5C9.999998208847046,5,9.999998208847046,5,9.999998208847046,5ZM11.999998208847046,3C11.999998208847046,3,11.999998208847046,2,11.999998208847046,2C11.999998208847046,2,11.999998208847046,3,11.999998208847046,3C11.999998208847046,3,11.999998208847046,3,11.999998208847046,3ZM14.000008208847046,5C14.000008208847046,5,13.000008208847046,5,13.000008208847046,5C13.000008208847046,5.38669,13.222908208847047,5.73873,13.572508208847045,5.9040300000000006C13.572508208847045,5.9040300000000006,14.000008208847046,5,14.000008208847046,5C14.000008208847046,5,14.000008208847046,5,14.000008208847046,5ZM18.000008208847046,11C18.000008208847046,11,19.000008208847046,11,19.000008208847046,11C19.000008208847046,10.98436,18.999608208847047,10.96873,18.99890820884705,10.95311C18.99890820884705,10.95311,18.000008208847046,11,18.000008208847046,11C18.000008208847046,11,18.000008208847046,11,18.000008208847046,11ZM18.000008208847046,14C18.000008208847046,14,17.000008208847046,14,17.000008208847046,14C17.000008208847046,14.0402,17.002408208847044,14.0803,17.007208208847047,14.1202C17.007208208847047,14.1202,18.000008208847046,14,18.000008208847046,14C18.000008208847046,14,18.000008208847046,14,18.000008208847046,14ZM20.000008208847046,17C20.000008208847046,17,20.000008208847046,18,20.000008208847046,18C20.454208208847046,18,20.851308208847048,17.694000000000003,20.967008208847044,17.2548C21.082708208847045,16.8156,20.887908208847048,16.3536,20.492808208847045,16.1298C20.492808208847045,16.1298,20.000008208847046,17,20.000008208847046,17C20.000008208847046,17,20.000008208847046,17,20.000008208847046,17ZM3.999998208847046,17C3.999998208847046,17,3.507247208847046,16.1298,3.507247208847046,16.1298C3.112053208847046,16.3536,2.917289908847046,16.8156,3.0330019088470457,17.2548C3.148715208847046,17.694000000000003,3.545842208847046,18,3.999998208847046,18C3.999998208847046,18,3.999998208847046,17,3.999998208847046,17C3.999998208847046,17,3.999998208847046,17,3.999998208847046,17ZM5.999998208847046,14C5.999998208847046,14,6.992748208847046,14.1202,6.992748208847046,14.1202C6.997578208847045,14.0803,6.999998208847046,14.0402,6.999998208847046,14C6.999998208847046,14,5.999998208847046,14,5.999998208847046,14C5.999998208847046,14,5.999998208847046,14,5.999998208847046,14ZM5.999998208847046,11C5.999998208847046,11,5.001098208847045,10.95311,5.001098208847045,10.95311C5.000368208847046,10.96873,4.999998208847046,10.98436,4.999998208847046,11C4.999998208847046,11,5.999998208847046,11,5.999998208847046,11C5.999998208847046,11,5.999998208847046,11,5.999998208847046,11ZM9.999998208847046,17C9.999998208847046,16.447699999999998,9.552278208847046,16,8.999998208847046,16C8.447718208847046,16,7.999998208847046,16.447699999999998,7.999998208847046,17C7.999998208847046,17,9.999998208847046,17,9.999998208847046,17C9.999998208847046,17,9.999998208847046,17,9.999998208847046,17ZM11.999998208847046,21C11.999998208847046,21,11.999998208847046,22,11.999998208847046,22C11.999998208847046,22,11.999998208847046,21,11.999998208847046,21C11.999998208847046,21,11.999998208847046,21,11.999998208847046,21ZM16.000008208847046,17C16.000008208847046,16.447699999999998,15.552308208847046,16,15.000008208847046,16C14.447708208847047,16,14.000008208847046,16.447699999999998,14.000008208847046,17C14.000008208847046,17,16.000008208847046,17,16.000008208847046,17C16.000008208847046,17,16.000008208847046,17,16.000008208847046,17ZM10.999998208847046,5C10.999998208847046,4.734780000000001,11.105358208847045,4.48043,11.292888208847046,4.29289C11.292888208847046,4.29289,9.878678208847045,2.87868,9.878678208847045,2.87868C9.316068208847046,3.44129,8.999998208847046,4.20435,8.999998208847046,5C8.999998208847046,5,10.999998208847046,5,10.999998208847046,5C10.999998208847046,5,10.999998208847046,5,10.999998208847046,5ZM11.292888208847046,4.29289C11.480428208847046,4.10536,11.734778208847047,4,11.999998208847046,4C11.999998208847046,4,11.999998208847046,2,11.999998208847046,2C11.204348208847046,2,10.441288208847045,2.31607,9.878678208847045,2.87868C9.878678208847045,2.87868,11.292888208847046,4.29289,11.292888208847046,4.29289C11.292888208847046,4.29289,11.292888208847046,4.29289,11.292888208847046,4.29289ZM11.999998208847046,4C12.265218208847045,4,12.519568208847046,4.10536,12.707108208847046,4.29289C12.707108208847046,4.29289,14.121308208847045,2.87868,14.121308208847045,2.87868C13.558708208847046,2.31607,12.795648208847046,2,11.999998208847046,2C11.999998208847046,2,11.999998208847046,4,11.999998208847046,4C11.999998208847046,4,11.999998208847046,4,11.999998208847046,4ZM12.707108208847046,4.29289C12.894638208847045,4.48043,13.000008208847046,4.734780000000001,13.000008208847046,5C13.000008208847046,5,15.000008208847046,5,15.000008208847046,5C15.000008208847046,4.20435,14.683908208847045,3.44129,14.121308208847045,2.87868C14.121308208847045,2.87868,12.707108208847046,4.29289,12.707108208847046,4.29289C12.707108208847046,4.29289,12.707108208847046,4.29289,12.707108208847046,4.29289ZM13.572508208847045,5.9040300000000006C14.556908208847046,6.36948,15.396008208847046,7.09402,16.000008208847046,8C16.000008208847046,8,17.664108208847047,6.8906,17.664108208847047,6.8906C16.858808208847044,5.68263,15.739908208847046,4.71657,14.427508208847046,4.0959699999999994C14.427508208847046,4.0959699999999994,13.572508208847045,5.9040300000000006,13.572508208847045,5.9040300000000006C13.572508208847045,5.9040300000000006,13.572508208847045,5.9040300000000006,13.572508208847045,5.9040300000000006ZM16.000008208847046,8C16.60400820884705,8.90598,16.950008208847045,9.95923,17.001108208847047,11.04689C17.001108208847047,11.04689,18.99890820884705,10.95311,18.99890820884705,10.95311C18.930808208847047,9.50291,18.469408208847046,8.098569999999999,17.664108208847047,6.8906C17.664108208847047,6.8906,16.000008208847046,8,16.000008208847046,8C16.000008208847046,8,16.000008208847046,8,16.000008208847046,8ZM17.000008208847046,11C17.000008208847046,11,17.000008208847046,14,17.000008208847046,14C17.000008208847046,14,19.000008208847046,14,19.000008208847046,14C19.000008208847046,14,19.000008208847046,11,19.000008208847046,11C19.000008208847046,11,17.000008208847046,11,17.000008208847046,11C17.000008208847046,11,17.000008208847046,11,17.000008208847046,11ZM17.007208208847047,14.1202C17.101308208847044,14.8973,17.376508208847046,15.6415,17.810808208847046,16.2928C17.810808208847046,16.2928,19.474908208847047,15.1834,19.474908208847047,15.1834C19.214308208847047,14.7926,19.049208208847045,14.3461,18.992808208847045,13.8798C18.992808208847045,13.8798,17.007208208847047,14.1202,17.007208208847047,14.1202C17.007208208847047,14.1202,17.007208208847047,14.1202,17.007208208847047,14.1202ZM17.810808208847046,16.2928C18.245008208847047,16.944200000000002,18.826108208847046,17.4844,19.507208208847047,17.8702C19.507208208847047,17.8702,20.492808208847045,16.1298,20.492808208847045,16.1298C20.084008208847045,15.8984,19.735408208847044,15.5742,19.474908208847047,15.1834C19.474908208847047,15.1834,17.810808208847046,16.2928,17.810808208847046,16.2928C17.810808208847046,16.2928,17.810808208847046,16.2928,17.810808208847046,16.2928ZM20.000008208847046,16C20.000008208847046,16,3.999998208847046,16,3.999998208847046,16C3.999998208847046,16,3.999998208847046,18,3.999998208847046,18C3.999998208847046,18,20.000008208847046,18,20.000008208847046,18C20.000008208847046,18,20.000008208847046,16,20.000008208847046,16C20.000008208847046,16,20.000008208847046,16,20.000008208847046,16ZM4.492748208847046,17.8702C5.173928208847046,17.4844,5.755018208847046,16.944200000000002,6.189238208847046,16.2928C6.189238208847046,16.2928,4.525138208847046,15.1834,4.525138208847046,15.1834C4.264598208847046,15.5742,3.915950208847046,15.8984,3.507247208847046,16.1298C3.507247208847046,16.1298,4.492748208847046,17.8702,4.492748208847046,17.8702C4.492748208847046,17.8702,4.492748208847046,17.8702,4.492748208847046,17.8702ZM6.189238208847046,16.2928C6.623458208847046,15.6415,6.898678208847046,14.8973,6.992748208847046,14.1202C6.992748208847046,14.1202,5.007248208847046,13.8798,5.007248208847046,13.8798C4.950808208847046,14.3461,4.785668208847046,14.7926,4.525138208847046,15.1834C4.525138208847046,15.1834,6.189238208847046,16.2928,6.189238208847046,16.2928C6.189238208847046,16.2928,6.189238208847046,16.2928,6.189238208847046,16.2928ZM6.999998208847046,14C6.999998208847046,14,6.999998208847046,11,6.999998208847046,11C6.999998208847046,11,4.999998208847046,11,4.999998208847046,11C4.999998208847046,11,4.999998208847046,14,4.999998208847046,14C4.999998208847046,14,6.999998208847046,14,6.999998208847046,14C6.999998208847046,14,6.999998208847046,14,6.999998208847046,14ZM6.998898208847046,11.04689C7.049948208847046,9.95923,7.396018208847046,8.90598,7.999998208847046,8C7.999998208847046,8,6.335898208847046,6.8906,6.335898208847046,6.8906C5.530588208847046,8.098569999999999,5.069168208847046,9.50291,5.001098208847045,10.95311C5.001098208847045,10.95311,6.998898208847046,11.04689,6.998898208847046,11.04689C6.998898208847046,11.04689,6.998898208847046,11.04689,6.998898208847046,11.04689ZM7.999998208847046,8C8.603978208847046,7.09402,9.443118208847046,6.36948,10.427468208847046,5.9040300000000006C10.427468208847046,5.9040300000000006,9.572528208847046,4.0959699999999994,9.572528208847046,4.0959699999999994C8.260058208847045,4.71657,7.141208208847046,5.68263,6.335898208847046,6.8906C6.335898208847046,6.8906,7.999998208847046,8,7.999998208847046,8C7.999998208847046,8,7.999998208847046,8,7.999998208847046,8ZM7.999998208847046,17C7.999998208847046,17,7.999998208847046,18,7.999998208847046,18C7.999998208847046,18,9.999998208847046,18,9.999998208847046,18C9.999998208847046,18,9.999998208847046,17,9.999998208847046,17C9.999998208847046,17,7.999998208847046,17,7.999998208847046,17C7.999998208847046,17,7.999998208847046,17,7.999998208847046,17ZM7.999998208847046,18C7.999998208847046,19.0609,8.421428208847047,20.0783,9.171568208847045,20.8284C9.171568208847045,20.8284,10.585788208847045,19.4142,10.585788208847045,19.4142C10.210708208847045,19.0391,9.999998208847046,18.5304,9.999998208847046,18C9.999998208847046,18,7.999998208847046,18,7.999998208847046,18C7.999998208847046,18,7.999998208847046,18,7.999998208847046,18ZM9.171568208847045,20.8284C9.921718208847047,21.5786,10.939128208847045,22,11.999998208847046,22C11.999998208847046,22,11.999998208847046,20,11.999998208847046,20C11.469568208847045,20,10.960858208847046,19.7893,10.585788208847045,19.4142C10.585788208847045,19.4142,9.171568208847045,20.8284,9.171568208847045,20.8284C9.171568208847045,20.8284,9.171568208847045,20.8284,9.171568208847045,20.8284ZM11.999998208847046,22C13.060908208847046,22,14.078308208847046,21.5786,14.828408208847046,20.8284C14.828408208847046,20.8284,13.414208208847047,19.4142,13.414208208847047,19.4142C13.039108208847045,19.7893,12.530428208847045,20,11.999998208847046,20C11.999998208847046,20,11.999998208847046,22,11.999998208847046,22C11.999998208847046,22,11.999998208847046,22,11.999998208847046,22ZM14.828408208847046,20.8284C15.578608208847045,20.0783,16.000008208847046,19.0609,16.000008208847046,18C16.000008208847046,18,14.000008208847046,18,14.000008208847046,18C14.000008208847046,18.5304,13.789308208847046,19.0391,13.414208208847047,19.4142C13.414208208847047,19.4142,14.828408208847046,20.8284,14.828408208847046,20.8284C14.828408208847046,20.8284,14.828408208847046,20.8284,14.828408208847046,20.8284ZM16.000008208847046,18C16.000008208847046,18,16.000008208847046,17,16.000008208847046,17C16.000008208847046,17,14.000008208847046,17,14.000008208847046,17C14.000008208847046,17,14.000008208847046,18,14.000008208847046,18C14.000008208847046,18,16.000008208847046,18,16.000008208847046,18C16.000008208847046,18,16.000008208847046,18,16.000008208847046,18Z" fill="currentColor" fill-opacity="1"/></g></g></svg>