<?xml version="1.0" encoding="UTF-8"?>
<svg width="30px" height="30px" viewBox="0 0 30 30" version="1.1" xmlns="http://www.w3.org/2000/svg" xmlns:xlink="http://www.w3.org/1999/xlink">
    <title>icon/通知/默认 2</title>
    <g id="V1.0" stroke="none" stroke-width="1" fill="none" fill-rule="evenodd">
        <g id="icon" transform="translate(-40.000000, -140.000000)">
            <g id="编组" transform="translate(40.000000, 140.000000)">
                <rect id="矩形备份-3" fill="#414B64" opacity="0" x="0" y="0" width="30" height="30" rx="15"></rect>
                <path d="M15,7.6 C18.2032515,7.6 20.8,10.1967485 20.8,13.4 L20.8,13.4 L20.799,19.199 L21.8,19.2 C21.9104569,19.2 22,19.2895431 22,19.4 L22,20.2 C22,20.3104569 21.9104569,20.4 21.8,20.4 L8.2,20.4 C8.08954305,20.4 8,20.3104569 8,20.2 L8,19.4 C8,19.2895431 8.08954305,19.2 8.2,19.2 L9.199,19.199 L9.2,13.4 C9.2,10.2712427 11.6773739,7.72110701 14.7775264,7.60418819 Z M15,8.8 C12.4594902,8.8 10.4,10.8594902 10.4,13.4 L10.4,13.4 L10.399,19.199 L19.599,19.199 L19.6,13.4 C19.6,11.0027052 17.7661625,9.03372603 15.4247764,8.81935157 L15.2105619,8.80473351 Z M17,21.4 L17,22.2 C17,22.3104569 16.9104569,22.4 16.8,22.4 L13.2,22.4 C13.0895431,22.4 13,22.3104569 13,22.2 L13,21.4 C13,21.2895431 13.0895431,21.2 13.2,21.2 L16.8,21.2 C16.9104569,21.2 17,21.2895431 17,21.4 Z" id="形状结合" fill="currentColor" fill-rule="nonzero"></path>
            </g>
        </g>
    </g>
</svg>