<svg xmlns="http://www.w3.org/2000/svg" xmlns:xlink="http://www.w3.org/1999/xlink" fill="none" 
version="1.1" width="226" height="210" viewBox="0 0 226 210">
  <defs>
    <clipPath id="master_svg0_1_031">
    <rect x="0" y="0" width="226" height="210" rx="0"/></clipPath>
    <filter id="master_svg1_1_035" filterUnits="objectBoundingBox" color-interpolation-filters="sRGB" x="0" y="0" width="1" height="1">
      <feFlood flood-opacity="0" result="BackgroundImageFix"/>
      <feBlend mode="normal" in="SourceGraphic" in2="BackgroundImageFix" result="shape"/>
      <feColorMatrix in="SourceAlpha" type="matrix" result="hardAlpha" values="0 0 0 0 0 0 0 0 0 0 0 0 0 0 0 0 0 0 127 0"/>
      <feOffset dy="1" dx="0"/><feGaussianBlur stdDeviation="0.5"/>
      <feComposite in2="hardAlpha" operator="arithmetic" k2="-1" k3="1"/>
      <feColorMatrix type="matrix" values="0 0 0 0 1 0 0 0 0 1 0 0 0 0 1 0 0 0 0.05000000074505806 0"/>
      <feBlend mode="normal" in2="shape" result="effect1_innerShadow"/>
      <feColorMatrix in="SourceAlpha" type="matrix" result="hardAlpha" values="0 0 0 0 0 0 0 0 0 0 0 0 0 0 0 0 0 0 127 0"/>
      <feOffset dy="4" dx="0"/>
      <feGaussianBlur stdDeviation="2"/>
      <feComposite in2="hardAlpha" operator="arithmetic" k2="-1" k3="1"/>
      <feColorMatrix type="matrix" values="0 0 0 0 1 0 0 0 0 1 0 0 0 0 1 0 0 0 0.15000000596046448 0"/>
      <feBlend mode="normal" in2="effect1_innerShadow" result="effect2_innerShadow"/>
      <feColorMatrix in="SourceAlpha" type="matrix" result="hardAlpha" values="0 0 0 0 0 0 0 0 0 0 0 0 0 0 0 0 0 0 127 0"/>
      <feOffset dy="4" dx="0"/>
      <feGaussianBlur stdDeviation="18"/>
      <feComposite in2="hardAlpha" operator="arithmetic" k2="-1" k3="1"/>
      <feColorMatrix type="matrix" values="0 0 0 0 1 0 0 0 0 1 0 0 0 0 1 0 0 0 0.36000001430511475 0"/>
      <feBlend mode="normal" in2="effect2_innerShadow" result="effect3_innerShadow"/>
      <feGaussianBlur in="BackgroundImageFix" stdDeviation="18"/>
      <feComposite in2="SourceAlpha" operator="in" result="effect4_foregroundBlur"/>
      <feBlend mode="normal" in="SourceGraphic" in2="effect4_foregroundBlur" result="shape"/>
    </filter>
  </defs>
  <g clip-path="url(#master_svg0_1_031)">
    <g>
    <g filter="url(#master_svg1_1_035)">
      <path d="M181.799,21.04993438720703C181.799,21.04993438720703,44.2008,21.04993438720703,44.2008,21.04993438720703C19.7931,21.04993438720703,0,40.98593438720703,0,65.56983438720704C0,65.56983438720704,0,165.44193438720703,0,165.44193438720703C0,190.02593438720703,19.7931,209.96193438720704,44.2008,209.96193438720704C44.2008,209.96193438720704,181.761,209.96193438720704,181.761,209.96193438720704C206.169,209.96193438720704,225.962,190.02593438720703,225.962,165.44193438720703C225.962,165.44193438720703,225.962,65.56983438720704,225.962,65.56983438720704C226,40.98593438720703,206.207,21.04993438720703,181.799,21.04993438720703C181.799,21.04993438720703,181.799,21.04993438720703,181.799,21.04993438720703Z" fill="currentColor" fill-opacity="0.14000000059604645"/>
    </g>
    <g>
    <path d="M113.00002872314454,155.56980655517577C90.68982872314453,155.56980655517577,72.53662872314453,137.28550655517577,72.53662872314453,114.81430655517579C72.53662872314453,92.34310655517578,90.68982872314453,74.05890655517578,113.00002872314454,74.05890655517578C135.31022872314452,74.05890655517578,153.46342872314455,92.34310655517578,153.46342872314455,114.81430655517579C153.46342872314455,137.28550655517577,135.31022872314452,155.56980655517577,113.00002872314454,155.56980655517577C113.00002872314454,155.56980655517577,113.00002872314454,155.56980655517577,113.00002872314454,155.56980655517577ZM113.00002872314454,85.58260655517579C96.98242872314452,85.58260655517579,83.97772872314454,98.68120655517578,83.97772872314454,114.81430655517579C83.97772872314454,130.94750655517578,96.98242872314452,144.04610655517578,113.00002872314454,144.04610655517578C129.01752872314452,144.04610655517578,142.02232872314454,130.94750655517578,142.02232872314454,114.81430655517579C142.02232872314454,98.68120655517578,129.01752872314452,85.58260655517579,113.00002872314454,85.58260655517579C113.00002872314454,85.58260655517579,113.00002872314454,85.58260655517579,113.00002872314454,85.58260655517579Z" fill="currentColor" fill-opacity="1"/>
  </g>
  <g>
   <path d="M137.78910357666015,0C137.78910357666015,0,88.21090357666016,0,88.21090357666016,0C79.32500357666015,0,72.11710357666016,7.25992,72.11710357666016,16.21C72.11710357666016,16.21,72.11710357666016,21.0499,72.11710357666016,21.0499C72.11710357666016,21.0499,153.88290357666017,21.0499,153.88290357666017,21.0499C153.88290357666017,21.0499,153.88290357666017,16.21,153.88290357666017,16.21C153.88290357666017,7.25992,146.67500357666017,0,137.78910357666015,0C137.78910357666015,0,137.78910357666015,0,137.78910357666015,0Z" fill="currentColor" fill-opacity="1"/>
    </g>
    <g>
   <path d="M186.18495910644532,69.14216778564453C186.18495910644532,69.14216778564453,168.6037791064453,69.14216778564453,168.6037791064453,69.14216778564453C164.1036091064453,69.14216778564453,160.4424591064453,65.45456778564453,160.4424591064453,60.92189778564453C160.4424591064453,56.38924778564453,164.1036091064453,52.70166778564453,168.6037791064453,52.70166778564453C168.6037791064453,52.70166778564453,186.18495910644532,52.70166778564453,186.18495910644532,52.70166778564453C190.68515910644533,52.70166778564453,194.3462591064453,56.38924778564453,194.3462591064453,60.92189778564453C194.3462591064453,65.45456778564453,190.7232591064453,69.14216778564453,186.18495910644532,69.14216778564453C186.18495910644532,69.14216778564453,186.18495910644532,69.14216778564453,186.18495910644532,69.14216778564453Z" fill="currentColor" fill-opacity="1"/>
    </g>
    </g>
  </g>
</svg>