<svg xmlns="http://www.w3.org/2000/svg" xmlns:xlink="http://www.w3.org/1999/xlink" fill="none" version="1.1" width="16" height="16" viewBox="0 0 16 16"><defs><clipPath id="master_svg0_0_586"><rect x="0" y="0" width="16" height="16" rx="0"/></clipPath></defs><g clip-path="url(#master_svg0_0_586)"><g><path d="M3.2862343750000003,11.3134C2.667634375,10.6998,2.176634375,9.96987,1.841564375,9.16561C1.506494375,8.36135,1.3339843749999987,7.4987,1.333984375,6.62743C1.3339843749999987,5.75616,1.506494375,4.89351,1.841564375,4.08925C2.176634375,3.28499,2.667634375,2.55503,3.2862343750000003,1.94148C5.889534375,-0.6471599999999998,10.110824375,-0.6471599999999998,12.714084375,1.94148C13.332784375,2.55504,13.823884375,3.28504,14.159084375,4.08937C14.494184375,4.89369,14.666684375,5.75642,14.666684375,6.62776C14.666684375,7.49911,14.494184375,8.36184,14.159084375,9.16616C13.823884375,9.97049,13.332784375,10.7005,12.714084375,11.314C12.714084375,11.314,8.000184375,16,8.000184375,16C8.000184375,16,3.2862343750000003,11.3134,3.2862343750000003,11.3134C3.2862343750000003,11.3134,3.2862343750000003,11.3134,3.2862343750000003,11.3134ZM8.000184375,8.66674C8.262824375000001,8.66674,8.522894375,8.61501,8.765534375,8.5145C9.008184374999999,8.41399,9.228664375000001,8.26668,9.414374375,8.08096C9.600094375,7.89525,9.747414375,7.67477,9.847914375,7.43212C9.948424375,7.18947,10.000154375,6.9294,10.000154375,6.66676C10.000154375,6.40412,9.948424375,6.14405,9.847914375,5.9014C9.747414375,5.65876,9.600094375,5.43828,9.414374375,5.25256C9.228664375000001,5.06685,9.008184374999999,4.91953,8.765534375,4.81902C8.522894375,4.71852,8.262824375000001,4.66678,8.000184375,4.66678C7.469754375,4.66678,6.961054375,4.8775,6.585984375,5.25256C6.210914375,5.62763,6.000204375,6.13634,6.000204375,6.66676C6.000204375,7.19719,6.210914375,7.70589,6.585984375,8.08096C6.961054375,8.45603,7.469754375,8.66674,8.000184375,8.66674C8.000184375,8.66674,8.000184375,8.66674,8.000184375,8.66674Z" fill="currentColor" fill-opacity="1"/></g></g></svg>