<svg xmlns="http://www.w3.org/2000/svg" xmlns:xlink="http://www.w3.org/1999/xlink" fill="none" version="1.1" width="24" height="24" viewBox="0 0 24 24"><defs><clipPath id="master_svg0_0_517"><rect x="0" y="0" width="24" height="24" rx="0"/></clipPath></defs><g clip-path="url(#master_svg0_0_517)"><g><path d="M3,10C3,10,4,10,4,10C4,10,4,10,4,10C4,10,3,10,3,10C3,10,3,10,3,10ZM17,10C17,10,16,10,16,10C16,10,16,10,16,10C16,10,17,10,17,10C17,10,17,10,17,10ZM10,3C10,3,10,2,10,2C10,2,10,3,10,3C10,3,10,3,10,3ZM20.2929,21.7071C20.6834,22.0976,21.3166,22.0976,21.7071,21.7071C22.0976,21.3166,22.0976,20.6834,21.7071,20.2929C21.7071,20.2929,20.2929,21.7071,20.2929,21.7071C20.2929,21.7071,20.2929,21.7071,20.2929,21.7071ZM15.7071,14.2929C15.3166,13.9024,14.6834,13.9024,14.2929,14.2929C13.9024,14.6834,13.9024,15.3166,14.2929,15.7071C14.2929,15.7071,15.7071,14.2929,15.7071,14.2929C15.7071,14.2929,15.7071,14.2929,15.7071,14.2929ZM2,10C2,11.05058,2.206926,12.0909,2.608964,13.0615C2.608964,13.0615,4.45672,12.2961,4.45672,12.2961C4.15519,11.56815,4,10.78793,4,10C4,10,2,10,2,10C2,10,2,10,2,10ZM2.608964,13.0615C3.011,14.0321,3.6002799999999997,14.914,4.34315,15.6569C4.34315,15.6569,5.75736,14.2426,5.75736,14.2426C5.20021,13.6855,4.75825,13.0241,4.45672,12.2961C4.45672,12.2961,2.608964,13.0615,2.608964,13.0615C2.608964,13.0615,2.608964,13.0615,2.608964,13.0615ZM4.34315,15.6569C5.08601,16.3997,5.96793,16.989,6.93853,17.391C6.93853,17.391,7.7039,15.5433,7.7039,15.5433C6.97595,15.2417,6.31451,14.7998,5.75736,14.2426C5.75736,14.2426,4.34315,15.6569,4.34315,15.6569C4.34315,15.6569,4.34315,15.6569,4.34315,15.6569ZM6.93853,17.391C7.90914,17.793100000000003,8.94943,18,10,18C10,18,10,16,10,16C9.21207,16,8.43185,15.8448,7.7039,15.5433C7.7039,15.5433,6.93853,17.391,6.93853,17.391C6.93853,17.391,6.93853,17.391,6.93853,17.391ZM10,18C11.05057,18,12.0909,17.793100000000003,13.0615,17.391C13.0615,17.391,12.2961,15.5433,12.2961,15.5433C11.56815,15.8448,10.78793,16,10,16C10,16,10,18,10,18C10,18,10,18,10,18ZM13.0615,17.391C14.0321,16.989,14.914,16.3997,15.6569,15.6569C15.6569,15.6569,14.2426,14.2426,14.2426,14.2426C13.6855,14.7998,13.0241,15.2417,12.2961,15.5433C12.2961,15.5433,13.0615,17.391,13.0615,17.391C13.0615,17.391,13.0615,17.391,13.0615,17.391ZM15.6569,15.6569C16.3997,14.914,16.989,14.0321,17.391,13.0615C17.391,13.0615,15.5433,12.2961,15.5433,12.2961C15.2417,13.0241,14.7998,13.6855,14.2426,14.2426C14.2426,14.2426,15.6569,15.6569,15.6569,15.6569C15.6569,15.6569,15.6569,15.6569,15.6569,15.6569ZM17.391,13.0615C17.793100000000003,12.0909,18,11.05057,18,10C18,10,16,10,16,10C16,10.78793,15.8448,11.56815,15.5433,12.2961C15.5433,12.2961,17.391,13.0615,17.391,13.0615C17.391,13.0615,17.391,13.0615,17.391,13.0615ZM18,10C18,8.94943,17.793100000000003,7.90914,17.391,6.93853C17.391,6.93853,15.5433,7.7039,15.5433,7.7039C15.8448,8.43185,16,9.21207,16,10C16,10,18,10,18,10C18,10,18,10,18,10ZM17.391,6.93853C16.989,5.96793,16.3997,5.08601,15.6569,4.34315C15.6569,4.34315,14.2426,5.75736,14.2426,5.75736C14.7998,6.31451,15.2417,6.97595,15.5433,7.7039C15.5433,7.7039,17.391,6.93853,17.391,6.93853C17.391,6.93853,17.391,6.93853,17.391,6.93853ZM15.6569,4.34315C14.914,3.6002799999999997,14.0321,3.011,13.0615,2.608964C13.0615,2.608964,12.2961,4.45672,12.2961,4.45672C13.0241,4.75825,13.6855,5.20021,14.2426,5.75736C14.2426,5.75736,15.6569,4.34315,15.6569,4.34315C15.6569,4.34315,15.6569,4.34315,15.6569,4.34315ZM13.0615,2.608964C12.0909,2.206926,11.05058,2,10,2C10,2,10,4,10,4C10.78793,4,11.56815,4.15519,12.2961,4.45672C12.2961,4.45672,13.0615,2.608964,13.0615,2.608964C13.0615,2.608964,13.0615,2.608964,13.0615,2.608964ZM10,2C8.94943,2,7.90914,2.206926,6.93853,2.608964C6.93853,2.608964,7.7039,4.45672,7.7039,4.45672C8.43185,4.15519,9.21207,4,10,4C10,4,10,2,10,2C10,2,10,2,10,2ZM6.93853,2.608964C5.96793,3.011,5.08601,3.6002799999999997,4.34315,4.34315C4.34315,4.34315,5.75736,5.75736,5.75736,5.75736C6.31451,5.20021,6.97595,4.75825,7.7039,4.45672C7.7039,4.45672,6.93853,2.608964,6.93853,2.608964C6.93853,2.608964,6.93853,2.608964,6.93853,2.608964ZM4.34315,4.34315C3.6002799999999997,5.08601,3.011,5.96793,2.608964,6.93853C2.608964,6.93853,4.45672,7.7039,4.45672,7.7039C4.75825,6.97595,5.20021,6.31451,5.75736,5.75736C5.75736,5.75736,4.34315,4.34315,4.34315,4.34315C4.34315,4.34315,4.34315,4.34315,4.34315,4.34315ZM2.608964,6.93853C2.206926,7.90914,2,8.94942,2,10C2,10,4,10,4,10C4,9.21207,4.15519,8.43185,4.45672,7.7039C4.45672,7.7039,2.608964,6.93853,2.608964,6.93853C2.608964,6.93853,2.608964,6.93853,2.608964,6.93853ZM21.7071,20.2929C21.7071,20.2929,15.7071,14.2929,15.7071,14.2929C15.7071,14.2929,14.2929,15.7071,14.2929,15.7071C14.2929,15.7071,20.2929,21.7071,20.2929,21.7071C20.2929,21.7071,21.7071,20.2929,21.7071,20.2929C21.7071,20.2929,21.7071,20.2929,21.7071,20.2929Z" fill="currentColor" fill-opacity="1"/></g></g></svg>