<?xml version="1.0" encoding="UTF-8"?>
<svg width="30px" height="30px" viewBox="0 0 30 30" version="1.1" xmlns="http://www.w3.org/2000/svg" xmlns:xlink="http://www.w3.org/1999/xlink">
    <title>icon/头像</title>
    <g id="V1.0" stroke="none" stroke-width="1" fill="none" fill-rule="evenodd">
        <g id="icon" transform="translate(-140.000000, -40.000000)" fill="currentColor" fill-rule="nonzero">
            <g id="icon/头像" transform="translate(140.000000, 40.000000)">
                <g transform="translate(5.000000, 5.000000)" id="形状结合">
                    <path d="M9.63388655,19.9934225 L10,20 C9.86439966,20 9.7294297,19.997301 9.5951409,19.9919539 C9.49479581,19.9879555 9.39511704,19.9824984 9.29583745,19.9755921 C9.26866703,19.9737043 9.24071788,19.971645 9.2128009,19.9694711 C9.10420904,19.9610057 8.99694716,19.950899 8.89019162,19.9391119 C8.85835845,19.9355982 8.82624688,19.9318962 8.79418198,19.9280425 C8.71110402,19.9180566 8.62847133,19.9070713 8.54616379,19.8950834 C8.51334927,19.8903038 8.48064959,19.8853748 8.44800221,19.8802878 C8.37499789,19.8689123 8.30227303,19.8567503 8.2298185,19.843808 C8.18653714,19.8360771 8.14329152,19.828056 8.10014456,19.8197576 C7.99799635,19.8001107 7.89648477,19.7789283 7.79555079,19.7562198 C7.77333462,19.751222 7.75091552,19.7460967 7.72852527,19.7408962 C7.64567526,19.7216517 7.56335235,19.7014117 7.48143733,19.6801595 C7.44233606,19.6700135 7.40365738,19.6597267 7.36507157,19.6492146 C7.28351111,19.6269977 7.20206009,19.6036826 7.12104148,19.5793677 C7.10291331,19.5739281 7.08434251,19.5682963 7.06579466,19.5626119 C6.95645066,19.5290932 6.84854036,19.4939699 6.74145309,19.4570789 C6.72926025,19.4528788 6.71686727,19.4485823 6.70448539,19.4442621 C6.61129004,19.4117428 6.51892824,19.3779615 6.42721523,19.3428686 C6.4076313,19.3353745 6.38830707,19.3279103 6.36901194,19.3203879 C6.1613347,19.2394332 5.95664039,19.1515551 5.75560121,19.0571805 C5.7315063,19.0458697 5.70742431,19.0344466 5.68339546,19.0229303 C5.61145167,18.9884491 5.54005392,18.9531683 5.46914419,18.9170666 C5.44114997,18.9028142 5.41320896,18.8884219 5.3853449,18.8739023 C5.31504278,18.8372682 5.24527427,18.7998473 5.1760074,18.7616289 C5.12113811,18.7313561 5.0663884,18.7004703 5.01196193,18.6690866 C4.94631627,18.6312342 4.88109728,18.592631 4.81636012,18.5533136 C4.79916152,18.542867 4.78246473,18.5326579 4.76580032,18.5224013 C4.58045639,18.408341 4.39863372,18.2880619 4.221098,18.162136 L4.20094092,18.1478012 L4.20094092,18.1478012 L4.01031678,18.0084712 C1.5755564,16.18454 0,13.2762655 0,10 C0,4.4771525 4.4771525,0 10,0 C15.5228475,0 20,4.4771525 20,10 C20,13.3610003 18.3418917,16.3347286 15.7990591,18.1478012 C15.7983713,18.1481303 15.7982833,18.1484608 15.7981952,18.1487913 L15.784953,18.1578406 C15.697454,18.220001 15.6089117,18.280789 15.5193577,18.3401731 L15.7981952,18.1487913 C15.6933515,18.2235222 15.5869987,18.2962819 15.4791912,18.367016 C15.3983753,18.4196925 15.3174241,18.4711584 15.235694,18.5214814 C15.2187035,18.5322618 15.2016629,18.5426819 15.1845887,18.5530524 C15.1015126,18.603206 15.0175875,18.6525298 14.9328909,18.7006525 C14.9218265,18.7072231 14.9107251,18.7135012 14.8996106,18.7197587 C14.8110755,18.7692824 14.7256897,18.8156896 14.6395639,18.8608779 C14.5850417,18.8897277 14.5301894,18.9178563 14.4750452,18.9454905 C14.4394808,18.9630857 14.4041372,18.9805384 14.3686764,18.9977876 C14.3224205,19.0205031 14.275357,19.0429398 14.2280918,19.0650179 C14.0317478,19.1565336 13.8327648,19.2417333 13.6305863,19.3205445 C13.6115164,19.3281126 13.5921951,19.3355734 13.572845,19.3429758 C13.4810718,19.3779615 13.38871,19.4117428 13.2957223,19.4441896 C13.2830027,19.4487313 13.2706113,19.4530261 13.2582088,19.4572971 C13.1514596,19.4939699 13.0435493,19.5290932 12.9348509,19.5624141 C12.9155683,19.5683985 12.8969993,19.5740283 12.8784075,19.5796055 C12.7979399,19.6036826 12.7164889,19.6269977 12.6346198,19.6492987 C12.5962808,19.6597976 12.5576049,19.6700811 12.5188376,19.6801381 C12.4366477,19.7014117 12.3543247,19.7216517 12.2716081,19.7408652 C12.2490449,19.746142 12.2266271,19.7512659 12.2041806,19.7563144 C12.1035152,19.7789283 12.0020036,19.8001107 11.89994,19.8197414 C11.8566867,19.828081 11.8134426,19.8361003 11.7701016,19.8438405 C11.697727,19.8567503 11.6250021,19.8689123 11.5520159,19.8802849 C11.5193386,19.8853883 11.4866397,19.8903165 11.4538893,19.895086 C11.3715287,19.9070713 11.288896,19.9180566 11.2059509,19.9280265 C11.1737478,19.9319024 11.1416366,19.9356039 11.1094795,19.9391529 C11.0030528,19.950899 10.895791,19.9610057 10.7880498,19.9694048 C10.7592807,19.9716466 10.7313317,19.9737058 10.703351,19.9756498 C10.604883,19.9824984 10.5052042,19.9879555 10.4051472,19.9919424 C10.3918556,19.9924719 10.3788459,19.9929648 10.3658298,19.9934328 C10.3374079,19.9944555 10.3086716,19.9953676 10.2799048,19.9961582 L10,20 L10,20 C9.87743467,20 9.75538435,19.997795 9.63388655,19.9934225 Z M10,1.2 C5.1398942,1.2 1.2,5.1398942 1.2,10 C1.2,12.5413568 2.27726957,14.8311038 4.00006993,16.4375022 L4,10.6 C4,7.2862915 6.6862915,4.6 10,4.6 C13.3137085,4.6 16,7.2862915 16,10.6 L16.0009272,16.4365723 C17.7231461,14.8302202 18.8,12.5408664 18.8,10 C18.8,5.1398942 14.8601058,1.2 10,1.2 Z M11,12 L9,12 L9,12.4 C9,12.9522847 9.44771525,13.4 10,13.4 C10.5128358,13.4 10.9355072,13.0139598 10.9932723,12.5166211 L11,12.4 L11,12 Z M8,9 C7.44771525,9 7,9.44771525 7,10 C7,10.5522847 7.44771525,11 8,11 C8.55228475,11 9,10.5522847 9,10 C9,9.44771525 8.55228475,9 8,9 Z M12,9 C11.4477153,9 11,9.44771525 11,10 C11,10.5522847 11.4477153,11 12,11 C12.5522847,11 13,10.5522847 13,10 C13,9.44771525 12.5522847,9 12,9 Z"></path>
                </g>
            </g>
        </g>
    </g>
</svg>